<svg id="Grupo_570" data-name="Grupo 570" xmlns="http://www.w3.org/2000/svg" width="169.604" height="55.047" viewBox="0 0 169.604 55.047">
  <path id="Uni達o_7" data-name="Uni達o 7" d="M35.96,26.852a19.238,19.238,0,0,1-1.556,7.9,12.763,12.763,0,0,1-4.484,5.5,11.677,11.677,0,0,1-6.748,2,12.477,12.477,0,0,1-8.686-3.742v9.627h5.885v6.913H0V48.134H5.036V18.539H.792V11.512H14.486v3.742a11.9,11.9,0,0,1,8.8-4.142,11.322,11.322,0,0,1,6.8,2.071,12.957,12.957,0,0,1,4.371,5.642A20.552,20.552,0,0,1,35.96,26.852ZM20.428,34.679a4.964,4.964,0,0,0,4.3-2.1,10.14,10.14,0,0,0,1.5-5.956A9.465,9.465,0,0,0,24.7,20.882a5.132,5.132,0,0,0-4.385-2.057,5.18,5.18,0,0,0-4.343,2.142,9.315,9.315,0,0,0-1.627,5.77,9.262,9.262,0,0,0,1.683,5.67A5.23,5.23,0,0,0,20.428,34.679Zm43.7-11.169V34.622h4.81v6.913H54.675V39.193a14.15,14.15,0,0,1-8.092,2.8,11.57,11.57,0,0,1-7.837-2.542A8.6,8.6,0,0,1,35.8,32.594a9.073,9.073,0,0,1,3.3-7.327,13.206,13.206,0,0,1,8.757-2.757,12.6,12.6,0,0,1,3.38.414,18.867,18.867,0,0,1,3.438,1.414v-2.4a4.858,4.858,0,0,0-1.415-3.656,5.877,5.877,0,0,0-4.244-1.371,7.473,7.473,0,0,0-5.46,2.4l-7.639-1.4q3.48-7.085,14.373-7.084,7.469,0,10.652,3.1T64.125,23.51ZM48.7,36.022q2.547,0,5.97-3.085V30.252a10.455,10.455,0,0,0-5.6-2,4.493,4.493,0,0,0-3.112.971,3.542,3.542,0,0,0-1.075,2.771Q44.885,36.022,48.7,36.022Zm42.141-22V11.512h6.479V23.681H90.62q-2.377-4.97-7.243-4.97a6.257,6.257,0,0,0-4.908,2.2A7.994,7.994,0,0,0,76.53,26.4a9.27,9.27,0,0,0,1.853,5.956,5.992,5.992,0,0,0,4.937,2.328,7.872,7.872,0,0,0,4.244-1.257,9.559,9.559,0,0,0,3.282-3.542L98.2,33.165a17.805,17.805,0,0,1-5.856,6.856q-3.423,2.228-9.224,2.228-7.526,0-11.925-4.156T66.8,26.567a15.571,15.571,0,0,1,2.023-7.913,14.874,14.874,0,0,1,5.475-5.528,14.723,14.723,0,0,1,7.554-2.014A15.8,15.8,0,0,1,90.846,14.026Zm25.08-2.514v7.027h-5.489V31.651a3.419,3.419,0,0,0,.537,2.1,2.409,2.409,0,0,0,2.009.7,8.873,8.873,0,0,0,2.943-.628v6.656a19.552,19.552,0,0,1-7.186,1.514q-3.876,0-5.814-1.985a7.7,7.7,0,0,1-1.938-5.613V18.539H97.225V11.512h3.763V6.856L110.438,0V11.512Zm18.205,0v7.027h-5.489V31.651a3.423,3.423,0,0,0,.537,2.1,2.41,2.41,0,0,0,2.009.7,8.875,8.875,0,0,0,2.943-.628v6.656a19.553,19.553,0,0,1-7.186,1.514q-3.876,0-5.814-1.985a7.7,7.7,0,0,1-1.938-5.613V18.539H115.43V11.512h3.763V6.856L128.643,0V11.512Z" fill="#181818"/>
  <path id="Exclus達o_1" data-name="Exclus達o 1" d="M17.737,35.473a17.741,17.741,0,0,1-6.9-34.079A17.741,17.741,0,0,1,24.64,34.079,17.626,17.626,0,0,1,17.737,35.473Zm-5-26.378V25.777L26.49,17.436,12.734,9.095Z" transform="translate(134.132 8.955)" fill="#1dbba5"/>
</svg>
